<mxfile host="app.diagrams.net" modified="2024-01-09T13:14:40.822Z" agent="Mozilla/5.0 (X11; Ubuntu; Linux x86_64; rv:109.0) Gecko/20100101 Firefox/111.0" etag="jR5XssajNf5hJ3A2Aiwa" version="22.1.17" type="device">
  <diagram name="Seite-1" id="s_NgnAvo2dNKGs2PHhvp">
    <mxGraphModel dx="1364" dy="795" grid="1" gridSize="10" guides="1" tooltips="1" connect="1" arrows="1" fold="1" page="1" pageScale="1" pageWidth="827" pageHeight="1169" math="0" shadow="0">
      <root>
        <mxCell id="0" />
        <mxCell id="1" parent="0" />
        <mxCell id="h7eTXlzt2nfRVgy6b3-v-8" style="edgeStyle=orthogonalEdgeStyle;rounded=0;orthogonalLoop=1;jettySize=auto;html=1;exitX=0.5;exitY=1;exitDx=0;exitDy=0;entryX=0.5;entryY=0;entryDx=0;entryDy=0;" edge="1" parent="1" source="h7eTXlzt2nfRVgy6b3-v-1" target="h7eTXlzt2nfRVgy6b3-v-3">
          <mxGeometry relative="1" as="geometry" />
        </mxCell>
        <mxCell id="h7eTXlzt2nfRVgy6b3-v-9" style="edgeStyle=orthogonalEdgeStyle;rounded=0;orthogonalLoop=1;jettySize=auto;html=1;exitX=0.5;exitY=1;exitDx=0;exitDy=0;entryX=0.5;entryY=0;entryDx=0;entryDy=0;" edge="1" parent="1" source="h7eTXlzt2nfRVgy6b3-v-1" target="h7eTXlzt2nfRVgy6b3-v-4">
          <mxGeometry relative="1" as="geometry" />
        </mxCell>
        <mxCell id="h7eTXlzt2nfRVgy6b3-v-10" style="edgeStyle=orthogonalEdgeStyle;rounded=0;orthogonalLoop=1;jettySize=auto;html=1;exitX=0.5;exitY=1;exitDx=0;exitDy=0;entryX=0.5;entryY=0;entryDx=0;entryDy=0;" edge="1" parent="1" source="h7eTXlzt2nfRVgy6b3-v-1" target="h7eTXlzt2nfRVgy6b3-v-2">
          <mxGeometry relative="1" as="geometry" />
        </mxCell>
        <mxCell id="h7eTXlzt2nfRVgy6b3-v-11" style="edgeStyle=orthogonalEdgeStyle;rounded=0;orthogonalLoop=1;jettySize=auto;html=1;exitX=0.5;exitY=1;exitDx=0;exitDy=0;entryX=0.5;entryY=0;entryDx=0;entryDy=0;" edge="1" parent="1" source="h7eTXlzt2nfRVgy6b3-v-1" target="h7eTXlzt2nfRVgy6b3-v-6">
          <mxGeometry relative="1" as="geometry" />
        </mxCell>
        <mxCell id="h7eTXlzt2nfRVgy6b3-v-1" value="&lt;b&gt;RiscVCPU&lt;/b&gt;" style="rounded=0;whiteSpace=wrap;html=1;" vertex="1" parent="1">
          <mxGeometry x="350" y="270" width="120" height="60" as="geometry" />
        </mxCell>
        <mxCell id="h7eTXlzt2nfRVgy6b3-v-21" style="edgeStyle=orthogonalEdgeStyle;rounded=0;orthogonalLoop=1;jettySize=auto;html=1;exitX=0.058;exitY=0.967;exitDx=0;exitDy=0;entryX=0;entryY=0.5;entryDx=0;entryDy=0;exitPerimeter=0;" edge="1" parent="1" source="h7eTXlzt2nfRVgy6b3-v-2" target="h7eTXlzt2nfRVgy6b3-v-19">
          <mxGeometry relative="1" as="geometry">
            <Array as="points">
              <mxPoint x="427" y="480" />
            </Array>
          </mxGeometry>
        </mxCell>
        <mxCell id="h7eTXlzt2nfRVgy6b3-v-2" value="&lt;font style=&quot;font-size: 11px;&quot;&gt;&lt;b&gt;RiscVDecoder&lt;/b&gt;&lt;/font&gt;" style="rounded=0;whiteSpace=wrap;html=1;" vertex="1" parent="1">
          <mxGeometry x="420" y="380" width="120" height="60" as="geometry" />
        </mxCell>
        <mxCell id="h7eTXlzt2nfRVgy6b3-v-15" style="edgeStyle=orthogonalEdgeStyle;rounded=0;orthogonalLoop=1;jettySize=auto;html=1;exitX=0.5;exitY=1;exitDx=0;exitDy=0;entryX=0.5;entryY=0;entryDx=0;entryDy=0;" edge="1" parent="1" source="h7eTXlzt2nfRVgy6b3-v-3" target="h7eTXlzt2nfRVgy6b3-v-12">
          <mxGeometry relative="1" as="geometry" />
        </mxCell>
        <mxCell id="h7eTXlzt2nfRVgy6b3-v-16" style="edgeStyle=orthogonalEdgeStyle;rounded=0;orthogonalLoop=1;jettySize=auto;html=1;exitX=0.5;exitY=1;exitDx=0;exitDy=0;entryX=0.5;entryY=0;entryDx=0;entryDy=0;" edge="1" parent="1" source="h7eTXlzt2nfRVgy6b3-v-3" target="h7eTXlzt2nfRVgy6b3-v-14">
          <mxGeometry relative="1" as="geometry" />
        </mxCell>
        <mxCell id="h7eTXlzt2nfRVgy6b3-v-3" value="&lt;font style=&quot;font-size: 11px;&quot;&gt;&lt;b&gt;RiscVMMU&lt;/b&gt;&lt;/font&gt;" style="rounded=0;whiteSpace=wrap;html=1;" vertex="1" parent="1">
          <mxGeometry x="120" y="380" width="120" height="60" as="geometry" />
        </mxCell>
        <mxCell id="h7eTXlzt2nfRVgy6b3-v-20" style="edgeStyle=orthogonalEdgeStyle;rounded=0;orthogonalLoop=1;jettySize=auto;html=1;exitX=0.075;exitY=0.983;exitDx=0;exitDy=0;entryX=0;entryY=0.5;entryDx=0;entryDy=0;exitPerimeter=0;" edge="1" parent="1" source="h7eTXlzt2nfRVgy6b3-v-4" target="h7eTXlzt2nfRVgy6b3-v-17">
          <mxGeometry relative="1" as="geometry" />
        </mxCell>
        <mxCell id="h7eTXlzt2nfRVgy6b3-v-4" value="&lt;font style=&quot;font-size: 11px;&quot;&gt;&lt;b&gt;RiscVISA&lt;/b&gt;&lt;/font&gt;" style="rounded=0;whiteSpace=wrap;html=1;" vertex="1" parent="1">
          <mxGeometry x="270" y="380" width="120" height="60" as="geometry" />
        </mxCell>
        <mxCell id="h7eTXlzt2nfRVgy6b3-v-6" value="&lt;font style=&quot;font-size: 11px;&quot;&gt;&lt;b&gt;RiscVInterrupts&lt;/b&gt;&lt;/font&gt;" style="rounded=0;whiteSpace=wrap;html=1;" vertex="1" parent="1">
          <mxGeometry x="570" y="380" width="120" height="60" as="geometry" />
        </mxCell>
        <mxCell id="h7eTXlzt2nfRVgy6b3-v-7" value="&lt;font style=&quot;font-size: 11px;&quot;&gt;&lt;b&gt;RiscVFault&lt;/b&gt;&lt;/font&gt;" style="rounded=0;whiteSpace=wrap;html=1;fillColor=#d5e8d4;strokeColor=default;" vertex="1" parent="1">
          <mxGeometry x="700" y="310" width="120" height="60" as="geometry" />
        </mxCell>
        <mxCell id="h7eTXlzt2nfRVgy6b3-v-12" value="&lt;font style=&quot;font-size: 10px;&quot;&gt;MLB&lt;/font&gt;" style="rounded=0;whiteSpace=wrap;html=1;fillColor=#ffe6cc;strokeColor=default;" vertex="1" parent="1">
          <mxGeometry x="120" y="470" width="40" height="20" as="geometry" />
        </mxCell>
        <mxCell id="h7eTXlzt2nfRVgy6b3-v-14" value="&lt;font style=&quot;font-size: 10px;&quot;&gt;PLB&lt;/font&gt;" style="rounded=0;whiteSpace=wrap;html=1;fillColor=#ffe6cc;strokeColor=default;" vertex="1" parent="1">
          <mxGeometry x="200" y="470" width="40" height="20" as="geometry" />
        </mxCell>
        <mxCell id="h7eTXlzt2nfRVgy6b3-v-17" value="&lt;font style=&quot;font-size: 10px;&quot;&gt;Register File&lt;/font&gt;" style="rounded=0;whiteSpace=wrap;html=1;fillColor=#d5e8d4;strokeColor=default;" vertex="1" parent="1">
          <mxGeometry x="300" y="465" width="60" height="30" as="geometry" />
        </mxCell>
        <mxCell id="h7eTXlzt2nfRVgy6b3-v-19" value="&lt;font style=&quot;font-size: 10px;&quot;&gt;Instructions&lt;/font&gt;" style="rounded=0;whiteSpace=wrap;html=1;fillColor=#d5e8d4;strokeColor=default;" vertex="1" parent="1">
          <mxGeometry x="440" y="465" width="80" height="30" as="geometry" />
        </mxCell>
      </root>
    </mxGraphModel>
  </diagram>
</mxfile>
